<svg width="947" height="891" viewBox="0 0 947 891" fill="none" xmlns="http://www.w3.org/2000/svg">
<path d="M35.0013 888.712H219.001M269.501 888.712H219.001M219.001 888.712C207.835 882.379 187.001 871.212 180.501 852.712C174.001 834.212 177.191 824.148 187.001 790.212C198.16 760.703 212.284 721.552 225.998 682.712M680.608 360.212C669.882 365.123 659.74 369.632 651.501 373.212L647.501 364.212L540.001 107.712L493.501 3.7124C493.501 3.7124 478.199 38.7834 469.501 58.7124C461.292 77.5228 450.001 102.712 450.001 102.712L295.001 507.712M450.001 102.712L520.501 274.212L578.001 418.212M849.001 196.712C843.494 216.524 838.873 227.457 828.501 245.212C818.317 262.647 797.001 286.212 797.001 286.212C797.001 286.212 779.001 303.212 758.501 317.212C738.001 331.212 716.317 343.863 680.608 360.212M601.501 418.212C601.501 418.212 668.202 394.534 708.001 373.212C724.355 364.451 733.906 359.999 749.001 349.212C775.625 330.187 798.901 304.612 808.501 290.212C820.501 272.212 836.001 254.712 842.501 225.712C849.001 196.712 846.463 208.038 849.001 196.712C850.761 183.303 851.42 175.724 852.001 162.212C852.572 148.947 852.001 128.212 852.001 128.212C845.835 150.546 841.665 169.074 832.001 194.212C827.512 205.891 825.392 212.674 819.501 223.712C813.331 235.275 802.132 250.864 801.001 251.712M680.608 360.212C691.334 355.302 676.001 362.313 680.608 360.212ZM311.001 600.712H623.501M700.001 886.712C730.801 873.912 740.001 847.212 739.501 830.712C739.001 814.212 689.501 693.712 689.501 693.712L597.501 455.712L670.501 415.212L745.501 368.212M700.001 886.712H651.501M700.001 886.712H907.001M945.001 886.712H907.001M907.001 886.712C888.168 877.046 855.001 858.212 838.001 830.712C821.001 803.212 798.267 752.471 776.001 699.212C730.958 591.472 661.001 420.483 661.001 420.483M225.998 682.712C239.936 643.239 261.952 594.015 271.501 565.638L311.001 551.212M311.001 551.212L451.501 507.712C480.501 497.712 543.201 475.112 562.001 464.712C580.801 454.312 611.795 443.236 638.435 421.712C647.696 414.23 655.14 406.602 661.001 401.212C641.668 411.046 585.501 434.712 585.501 434.712C585.501 434.712 539.501 451.712 513.501 458.212L295.001 513.212C270.335 521.712 218.901 539.712 210.501 543.712C200.001 548.712 191.501 551.212 153.001 575.712C114.501 600.212 103.001 612.712 92.5013 621.712C82.0013 630.712 58.5013 659.212 47.5013 672.212C36.5013 685.212 16.5985 714.924 8.00125 746.712C3.51694 763.293 1.44149 773.036 1.50125 790.212C1.55966 806.998 3.03859 816.665 8.00125 832.7C0.501255 814.2 0.501255 794.212 8.00125 775.712C15.5013 757.212 29.0013 727.712 47.5013 705.212C66.0013 682.712 114.001 642.212 133.501 628.712C153.001 615.212 166.004 605.712 196.001 593.212C225.998 580.712 311.001 551.212 311.001 551.212" stroke="#D0D0D0" stroke-width="3" stroke-linecap="round"/>
</svg>
